{"accessors" : [{"bufferView" : 0, "byteOffset" : 0, "componentType" : 5123, "count" : 234, "type" : "SCALAR", "max" : [197], "min" : [0]}, {"bufferView" : 1, "byteOffset" : 0, "componentType" : 5126, "count" : 198, "type" : "VEC3", "max" : [5.485355854034424, 3.6966769695281982, 5.508446216583252], "min" : [-5.3922271728515625, 0.10012300312519073, -5.590174198150635], "name" : "POSITION"}, {"bufferView" : 1, "byteOffset" : 12, "componentType" : 5126, "count" : 198, "type" : "VEC2", "max" : [0.9499520063400269, -0.5750100016593933], "min" : [0, -1], "name" : "TEXCOORD_0"}, {"bufferView" : 1, "byteOffset" : 20, "componentType" : 5126, "count" : 198, "type" : "VEC3", "max" : [0.8644582033157349, 0.9999814629554749, 0.8485681414604187], "min" : [-0.8726301193237305, -0.9529903531074524, -0.8472790718078613], "name" : "NORMAL"}, {"bufferView" : 0, "byteOffset" : 468, "componentType" : 5123, "count" : 234, "type" : "SCALAR", "max" : [197], "min" : [0]}, {"bufferView" : 2, "byteOffset" : 0, "componentType" : 5126, "count" : 198, "type" : "VEC3", "max" : [5.560856819152832, 11.972108840942383, 5.540081024169922], "min" : [-5.381906032562256, 8.318458557128906, -5.614356994628906], "name" : "POSITION"}, {"bufferView" : 2, "byteOffset" : 12, "componentType" : 5126, "count" : 198, "type" : "VEC2", "max" : [1, -0], "min" : [0.07784699648618698, -0.4319390058517456], "name" : "TEXCOORD_0"}, {"bufferView" : 2, "byteOffset" : 20, "componentType" : 5126, "count" : 198, "type" : "VEC3", "max" : [0.8798671364784241, 0.9505007863044739, 0.8550316691398621], "min" : [-0.8705224990844727, -0.9999827742576599, -0.8521859049797058], "name" : "NORMAL"}, {"bufferView" : 0, "byteOffset" : 936, "componentType" : 5123, "count" : 216, "type" : "SCALAR", "max" : [180], "min" : [0]}, {"bufferView" : 3, "byteOffset" : 0, "componentType" : 5126, "count" : 181, "type" : "VEC3", "max" : [5.253596782684326, 12.341706275939941, 0.023437000811100006], "min" : [3.4268500804901123, 9.133797645568848, -1.3145689964294434], "name" : "POSITION"}, {"bufferView" : 3, "byteOffset" : 12, "componentType" : 5126, "count" : 181, "type" : "VEC2", "max" : [1, -0], "min" : [0, -1], "name" : "TEXCOORD_0"}, {"bufferView" : 3, "byteOffset" : 20, "componentType" : 5126, "count" : 181, "type" : "VEC3", "max" : [0.9937244057655334, 0.951259195804596, 0.8917144536972046], "min" : [-0.9688889384269714, -0.9096225500106812, -0.8917144536972046], "name" : "NORMAL"}, {"bufferView" : 0, "byteOffset" : 1368, "componentType" : 5123, "count" : 468, "type" : "SCALAR", "max" : [384], "min" : [0]}, {"bufferView" : 4, "byteOffset" : 0, "componentType" : 5126, "count" : 385, "type" : "VEC3", "max" : [-4.907831192016602, 8.907515525817871, 2.2799830436706543], "min" : [-6.522784233093262, 3.26418399810791, -1.1400660276412964], "name" : "POSITION"}, {"bufferView" : 4, "byteOffset" : 12, "componentType" : 5126, "count" : 385, "type" : "VEC2", "max" : [1, -0], "min" : [0, -1], "name" : "TEXCOORD_0"}, {"bufferView" : 4, "byteOffset" : 20, "componentType" : 5126, "count" : 385, "type" : "VEC3", "max" : [0.9999712705612183, 0.8923589587211609, 0.999466598033905], "min" : [-0.9988322854042053, -0.8977378606796265, -0.9954351186752319], "name" : "NORMAL"}], "asset" : {"generator" : "Aspose.3D 22.1", "version" : "2.0"}, "buffers" : [{"uri" : "data:application/octet-stream;base64,", "byteLength" : 39188}], "bufferViews" : [{"buffer" : 0, "byteOffset" : 0, "byteLength" : 2304, "target" : 34963}, {"buffer" : 0, "byteOffset" : 2308, "byteLength" : 7488, "byteStride" : 32, "target" : 34962}, {"buffer" : 0, "byteOffset" : 9800, "byteLength" : 7488, "byteStride" : 32, "target" : 34962}, {"buffer" : 0, "byteOffset" : 17292, "byteLength" : 6912, "byteStride" : 32, "target" : 34962}, {"buffer" : 0, "byteOffset" : 24208, "byteLength" : 14976, "byteStride" : 32, "target" : 34962}], "meshes" : [{"primitives" : [{"attributes" : {"POSITION" : 1, "TEXCOORD_0" : 2, "NORMAL" : 3}, "indices" : 0, "mode" : 4}], "name" : ""}, {"primitives" : [{"attributes" : {"POSITION" : 5, "TEXCOORD_0" : 6, "NORMAL" : 7}, "indices" : 4, "mode" : 4}], "name" : ""}, {"primitives" : [{"attributes" : {"POSITION" : 9, "TEXCOORD_0" : 10, "NORMAL" : 11}, "indices" : 8, "mode" : 4}], "name" : ""}, {"primitives" : [{"attributes" : {"POSITION" : 13, "TEXCOORD_0" : 14, "NORMAL" : 15}, "indices" : 12, "mode" : 4}], "name" : ""}], "nodes" : [{"mesh" : 0, "name" : "puzz_render"}, {"mesh" : 1, "name" : "puzz_render.001"}, {"mesh" : 2, "name" : "puzz_render.003"}, {"mesh" : 3, "name" : "puzz_render.004"}], "scene" : 0, "scenes" : [{"nodes" : [0, 1, 2, 3]}]}