{
    "asset" : {
        "generator" : "Khronos glTF Blender I/O v1.6.16",
        "version" : "2.0"
    },
    "scene" : 0,
    "scenes" : [
        {
            "name" : "Scene",
            "nodes" : [
                0,
                1,
                2,
                3,
                4,
                5,
                6,
                7
            ]
        }
    ],
    "nodes" : [
        {
            "mesh" : 0,
            "name" : "puzz_v2.015",
            "rotation" : [
                0.4156133830547333,
                0.24066035449504852,
                0.6199477910995483,
                -0.6204941868782043
            ],
            "scale" : [
                0.30000001192092896,
                0.30000001192092896,
                0.30000001192092896
            ],
            "translation" : [
                0.5380045175552368,
                52.77396774291992,
                9.631427764892578
            ]
        },
        {
            "mesh" : 1,
            "name" : "puzz_v2.016",
            "rotation" : [
                0.4156133830547333,
                0.24066035449504852,
                0.6199477910995483,
                -0.6204941868782043
            ],
            "scale" : [
                0.30000001192092896,
                0.30000001192092896,
                0.30000001192092896
            ],
            "translation" : [
                0.5380045175552368,
                52.77396774291992,
                9.631427764892578
            ]
        },
        {
            "mesh" : 2,
            "name" : "puzz_v2.017",
            "rotation" : [
                0.4156133830547333,
                0.24066035449504852,
                0.6199477910995483,
                -0.6204941868782043
            ],
            "scale" : [
                0.30000001192092896,
                0.30000001192092896,
                0.30000001192092896
            ],
            "translation" : [
                0.5380045175552368,
                52.77396774291992,
                9.631427764892578
            ]
        },
        {
            "mesh" : 3,
            "name" : "puzz_v2.018",
            "rotation" : [
                0.4156133830547333,
                0.24066035449504852,
                0.6199477910995483,
                -0.6204941868782043
            ],
            "scale" : [
                0.30000001192092896,
                0.30000001192092896,
                0.30000001192092896
            ],
            "translation" : [
                0.5380045175552368,
                52.77396774291992,
                9.631427764892578
            ]
        },
        {
            "mesh" : 4,
            "name" : "puzz_v2.019",
            "rotation" : [
                0.4156133830547333,
                0.24066035449504852,
                0.6199477910995483,
                -0.6204941868782043
            ],
            "scale" : [
                0.30000001192092896,
                0.30000001192092896,
                0.30000001192092896
            ],
            "translation" : [
                0.5380045175552368,
                52.77396774291992,
                9.631427764892578
            ]
        },
        {
            "mesh" : 5,
            "name" : "puzz_v2.020",
            "rotation" : [
                0.4156133830547333,
                0.24066035449504852,
                0.6199477910995483,
                -0.6204941868782043
            ],
            "scale" : [
                0.30000001192092896,
                0.30000001192092896,
                0.30000001192092896
            ],
            "translation" : [
                0.5380045175552368,
                52.77396774291992,
                9.631427764892578
            ]
        },
        {
            "mesh" : 6,
            "name" : "puzz_v2.021",
            "rotation" : [
                0.4156133830547333,
                0.24066035449504852,
                0.6199477910995483,
                -0.6204941868782043
            ],
            "scale" : [
                0.30000001192092896,
                0.30000001192092896,
                0.30000001192092896
            ],
            "translation" : [
                0.5380045175552368,
                52.77396774291992,
                9.631427764892578
            ]
        },
        {
            "mesh" : 7,
            "name" : "puzz_v2.022",
            "rotation" : [
                0.4156133830547333,
                0.24066035449504852,
                0.6199477910995483,
                -0.6204941868782043
            ],
            "scale" : [
                0.30000001192092896,
                0.30000001192092896,
                0.30000001192092896
            ],
            "translation" : [
                0.5380045175552368,
                52.77396774291992,
                9.631427764892578
            ]
        }
    ],
    "materials" : [
        {
            "doubleSided" : true,
            "name" : "Standard7B8889",
            "pbrMetallicRoughness" : {
                "baseColorFactor" : [
                    0.4823529124259949,
                    0.533333420753479,
                    0.5372549295425415,
                    1
                ],
                "metallicFactor" : 0
            }
        },
        {
            "doubleSided" : true,
            "name" : "Standard3F453E",
            "pbrMetallicRoughness" : {
                "baseColorFactor" : [
                    0.24705879390239716,
                    0.2705881893634796,
                    0.24313730001449585,
                    1
                ],
                "metallicFactor" : 0
            }
        },
        {
            "doubleSided" : true,
            "name" : "StandardFF483B",
            "pbrMetallicRoughness" : {
                "baseColorFactor" : [
                    1,
                    0.282353013753891,
                    0.23137259483337402,
                    1
                ],
                "metallicFactor" : 0
            }
        },
        {
            "doubleSided" : true,
            "name" : "StandardBBBBBB",
            "pbrMetallicRoughness" : {
                "baseColorFactor" : [
                    0.7333332896232605,
                    0.7333332896232605,
                    0.7333332896232605,
                    1
                ],
                "metallicFactor" : 0
            }
        },
        {
            "doubleSided" : true,
            "name" : "Standard81B5D0",
            "pbrMetallicRoughness" : {
                "baseColorFactor" : [
                    0.5058823823928833,
                    0.7098038792610168,
                    0.8156862854957581,
                    1
                ],
                "metallicFactor" : 0
            }
        }
    ],
    "meshes" : [
        {
            "name" : "puzz_v2.015",
            "primitives" : [
                {
                    "attributes" : {
                        "POSITION" : 0,
                        "NORMAL" : 1,
                        "TEXCOORD_0" : 2
                    },
                    "indices" : 3,
                    "material" : 0
                }
            ]
        },
        {
            "name" : "puzz_v2.016",
            "primitives" : [
                {
                    "attributes" : {
                        "POSITION" : 4,
                        "NORMAL" : 5,
                        "TEXCOORD_0" : 6
                    },
                    "indices" : 7,
                    "material" : 1
                }
            ]
        },
        {
            "name" : "puzz_v2.017",
            "primitives" : [
                {
                    "attributes" : {
                        "POSITION" : 8,
                        "NORMAL" : 9,
                        "TEXCOORD_0" : 10
                    },
                    "indices" : 11,
                    "material" : 2
                }
            ]
        },
        {
            "name" : "puzz_v2.018",
            "primitives" : [
                {
                    "attributes" : {
                        "POSITION" : 12,
                        "NORMAL" : 13,
                        "TEXCOORD_0" : 14
                    },
                    "indices" : 15,
                    "material" : 2
                }
            ]
        },
        {
            "name" : "puzz_v2.019",
            "primitives" : [
                {
                    "attributes" : {
                        "POSITION" : 16,
                        "NORMAL" : 17,
                        "TEXCOORD_0" : 18
                    },
                    "indices" : 19,
                    "material" : 3
                }
            ]
        },
        {
            "name" : "puzz_v2.020",
            "primitives" : [
                {
                    "attributes" : {
                        "POSITION" : 20,
                        "NORMAL" : 21,
                        "TEXCOORD_0" : 22
                    },
                    "indices" : 23,
                    "material" : 3
                }
            ]
        },
        {
            "name" : "puzz_v2.021",
            "primitives" : [
                {
                    "attributes" : {
                        "POSITION" : 24,
                        "NORMAL" : 25,
                        "TEXCOORD_0" : 26
                    },
                    "indices" : 27,
                    "material" : 4
                }
            ]
        },
        {
            "name" : "puzz_v2.022",
            "primitives" : [
                {
                    "attributes" : {
                        "POSITION" : 28,
                        "NORMAL" : 29,
                        "TEXCOORD_0" : 30
                    },
                    "indices" : 31,
                    "material" : 4
                }
            ]
        }
    ],
    "accessors" : [
        {
            "bufferView" : 0,
            "componentType" : 5126,
            "count" : 3326,
            "max" : [
                134.39779663085938,
                68.71748352050781,
                -69.31961059570312
            ],
            "min" : [
                28.135129928588867,
                -49.17744827270508,
                -150.09429931640625
            ],
            "type" : "VEC3"
        },
        {
            "bufferView" : 1,
            "componentType" : 5126,
            "count" : 3326,
            "type" : "VEC3"
        },
        {
            "bufferView" : 2,
            "componentType" : 5126,
            "count" : 3326,
            "type" : "VEC2"
        },
        {
            "bufferView" : 3,
            "componentType" : 5123,
            "count" : 19776,
            "type" : "SCALAR"
        },
        {
            "bufferView" : 4,
            "componentType" : 5126,
            "count" : 1941,
            "max" : [
                141.29229736328125,
                24.240720748901367,
                -66.33212280273438
            ],
            "min" : [
                122.4010009765625,
                -23.44198989868164,
                -93.90586853027344
            ],
            "type" : "VEC3"
        },
        {
            "bufferView" : 5,
            "componentType" : 5126,
            "count" : 1941,
            "type" : "VEC3"
        },
        {
            "bufferView" : 6,
            "componentType" : 5126,
            "count" : 1941,
            "type" : "VEC2"
        },
        {
            "bufferView" : 7,
            "componentType" : 5123,
            "count" : 11520,
            "type" : "SCALAR"
        },
        {
            "bufferView" : 8,
            "componentType" : 5126,
            "count" : 906,
            "max" : [
                132.13369750976562,
                -8.70352840423584,
                -71.63990020751953
            ],
            "min" : [
                127.32389831542969,
                -20.548940658569336,
                -79.90792846679688
            ],
            "type" : "VEC3"
        },
        {
            "bufferView" : 9,
            "componentType" : 5126,
            "count" : 906,
            "type" : "VEC3"
        },
        {
            "bufferView" : 10,
            "componentType" : 5126,
            "count" : 906,
            "type" : "VEC2"
        },
        {
            "bufferView" : 11,
            "componentType" : 5123,
            "count" : 5376,
            "type" : "SCALAR"
        },
        {
            "bufferView" : 12,
            "componentType" : 5126,
            "count" : 904,
            "max" : [
                134.56649780273438,
                18.1866397857666,
                -66.2694320678711
            ],
            "min" : [
                129.60879516601562,
                6.427223205566406,
                -74.24810028076172
            ],
            "type" : "VEC3"
        },
        {
            "bufferView" : 13,
            "componentType" : 5126,
            "count" : 904,
            "type" : "VEC3"
        },
        {
            "bufferView" : 14,
            "componentType" : 5126,
            "count" : 904,
            "type" : "VEC2"
        },
        {
            "bufferView" : 15,
            "componentType" : 5123,
            "count" : 5376,
            "type" : "SCALAR"
        },
        {
            "bufferView" : 16,
            "componentType" : 5126,
            "count" : 902,
            "max" : [
                131.88839721679688,
                -9.46554946899414,
                -64.63755798339844
            ],
            "min" : [
                124.22740173339844,
                -12.609999656677246,
                -77.36486053466797
            ],
            "type" : "VEC3"
        },
        {
            "bufferView" : 17,
            "componentType" : 5126,
            "count" : 902,
            "type" : "VEC3"
        },
        {
            "bufferView" : 18,
            "componentType" : 5126,
            "count" : 902,
            "type" : "VEC2"
        },
        {
            "bufferView" : 19,
            "componentType" : 5123,
            "count" : 5376,
            "type" : "SCALAR"
        },
        {
            "bufferView" : 20,
            "componentType" : 5126,
            "count" : 905,
            "max" : [
                133.6656036376953,
                9.186074256896973,
                -60.93355941772461
            ],
            "min" : [
                125.78630065917969,
                6.071324825286865,
                -73.55010986328125
            ],
            "type" : "VEC3"
        },
        {
            "bufferView" : 21,
            "componentType" : 5126,
            "count" : 905,
            "type" : "VEC3"
        },
        {
            "bufferView" : 22,
            "componentType" : 5126,
            "count" : 905,
            "type" : "VEC2"
        },
        {
            "bufferView" : 23,
            "componentType" : 5123,
            "count" : 5376,
            "type" : "SCALAR"
        },
        {
            "bufferView" : 24,
            "componentType" : 5126,
            "count" : 155,
            "max" : [
                129.06500244140625,
                -11.849780082702637,
                -70.48857879638672
            ],
            "min" : [
                127.22260284423828,
                -14.383359909057617,
                -72.96248626708984
            ],
            "type" : "VEC3"
        },
        {
            "bufferView" : 25,
            "componentType" : 5126,
            "count" : 155,
            "type" : "VEC3"
        },
        {
            "bufferView" : 26,
            "componentType" : 5126,
            "count" : 155,
            "type" : "VEC2"
        },
        {
            "bufferView" : 27,
            "componentType" : 5123,
            "count" : 912,
            "type" : "SCALAR"
        },
        {
            "bufferView" : 28,
            "componentType" : 5126,
            "count" : 154,
            "max" : [
                130.97250366210938,
                11.1693696975708,
                -66.27130126953125
            ],
            "min" : [
                128.88580322265625,
                8.504502296447754,
                -68.3974380493164
            ],
            "type" : "VEC3"
        },
        {
            "bufferView" : 29,
            "componentType" : 5126,
            "count" : 154,
            "type" : "VEC3"
        },
        {
            "bufferView" : 30,
            "componentType" : 5126,
            "count" : 154,
            "type" : "VEC2"
        },
        {
            "bufferView" : 31,
            "componentType" : 5123,
            "count" : 912,
            "type" : "SCALAR"
        }
    ],
    "bufferViews" : [
        {
            "buffer" : 0,
            "byteLength" : 39912,
            "byteOffset" : 0
        },
        {
            "buffer" : 0,
            "byteLength" : 39912,
            "byteOffset" : 39912
        },
        {
            "buffer" : 0,
            "byteLength" : 26608,
            "byteOffset" : 79824
        },
        {
            "buffer" : 0,
            "byteLength" : 39552,
            "byteOffset" : 106432
        },
        {
            "buffer" : 0,
            "byteLength" : 23292,
            "byteOffset" : 145984
        },
        {
            "buffer" : 0,
            "byteLength" : 23292,
            "byteOffset" : 169276
        },
        {
            "buffer" : 0,
            "byteLength" : 15528,
            "byteOffset" : 192568
        },
        {
            "buffer" : 0,
            "byteLength" : 23040,
            "byteOffset" : 208096
        },
        {
            "buffer" : 0,
            "byteLength" : 10872,
            "byteOffset" : 231136
        },
        {
            "buffer" : 0,
            "byteLength" : 10872,
            "byteOffset" : 242008
        },
        {
            "buffer" : 0,
            "byteLength" : 7248,
            "byteOffset" : 252880
        },
        {
            "buffer" : 0,
            "byteLength" : 10752,
            "byteOffset" : 260128
        },
        {
            "buffer" : 0,
            "byteLength" : 10848,
            "byteOffset" : 270880
        },
        {
            "buffer" : 0,
            "byteLength" : 10848,
            "byteOffset" : 281728
        },
        {
            "buffer" : 0,
            "byteLength" : 7232,
            "byteOffset" : 292576
        },
        {
            "buffer" : 0,
            "byteLength" : 10752,
            "byteOffset" : 299808
        },
        {
            "buffer" : 0,
            "byteLength" : 10824,
            "byteOffset" : 310560
        },
        {
            "buffer" : 0,
            "byteLength" : 10824,
            "byteOffset" : 321384
        },
        {
            "buffer" : 0,
            "byteLength" : 7216,
            "byteOffset" : 332208
        },
        {
            "buffer" : 0,
            "byteLength" : 10752,
            "byteOffset" : 339424
        },
        {
            "buffer" : 0,
            "byteLength" : 10860,
            "byteOffset" : 350176
        },
        {
            "buffer" : 0,
            "byteLength" : 10860,
            "byteOffset" : 361036
        },
        {
            "buffer" : 0,
            "byteLength" : 7240,
            "byteOffset" : 371896
        },
        {
            "buffer" : 0,
            "byteLength" : 10752,
            "byteOffset" : 379136
        },
        {
            "buffer" : 0,
            "byteLength" : 1860,
            "byteOffset" : 389888
        },
        {
            "buffer" : 0,
            "byteLength" : 1860,
            "byteOffset" : 391748
        },
        {
            "buffer" : 0,
            "byteLength" : 1240,
            "byteOffset" : 393608
        },
        {
            "buffer" : 0,
            "byteLength" : 1824,
            "byteOffset" : 394848
        },
        {
            "buffer" : 0,
            "byteLength" : 1848,
            "byteOffset" : 396672
        },
        {
            "buffer" : 0,
            "byteLength" : 1848,
            "byteOffset" : 398520
        },
        {
            "buffer" : 0,
            "byteLength" : 1232,
            "byteOffset" : 400368
        },
        {
            "buffer" : 0,
            "byteLength" : 1824,
            "byteOffset" : 401600
        }
    ],
    "buffers" : [
        {
            "byteLength" : 403424,
            "uri" : "data:application/octet-stream;base64,"
        }
    ]
}
