{
    "asset" : {
        "generator" : "Khronos glTF Blender I/O v1.6.16",
        "version" : "2.0"
    },
    "scene" : 0,
    "scenes" : [
        {
            "name" : "Scene",
            "nodes" : [
                0,
                1,
                2,
                3
            ]
        }
    ],
    "nodes" : [
        {
            "mesh" : 0,
            "name" : "puzz_render",
            "rotation" : [
                0.7071068286895752,
                0,
                0,
                0.7071067094802856
            ]
        },
        {
            "mesh" : 1,
            "name" : "puzz_render.001",
            "rotation" : [
                0.7071068286895752,
                0,
                0,
                0.7071067094802856
            ]
        },
        {
            "mesh" : 2,
            "name" : "puzz_render.003",
            "rotation" : [
                0.7071068286895752,
                0,
                0,
                0.7071067094802856
            ]
        },
        {
            "mesh" : 3,
            "name" : "puzz_render.004",
            "rotation" : [
                0.7071068286895752,
                0,
                0,
                0.7071067094802856
            ]
        }
    ],
    "materials" : [
        {
            "doubleSided" : true,
            "name" : "Standard346E94",
            "pbrMetallicRoughness" : {
                "baseColorFactor" : [
                    0.20392200350761414,
                    0.4313730001449585,
                    0.5803920030593872,
                    1
                ],
                "metallicFactor" : 0
            }
        },
        {
            "doubleSided" : true,
            "name" : "Standard9A9A9A",
            "pbrMetallicRoughness" : {
                "baseColorFactor" : [
                    0.6039220094680786,
                    0.6039220094680786,
                    0.6039220094680786,
                    1
                ],
                "metallicFactor" : 0
            }
        }
    ],
    "meshes" : [
        {
            "name" : "puzz_render",
            "primitives" : [
                {
                    "attributes" : {
                        "POSITION" : 0,
                        "NORMAL" : 1,
                        "TEXCOORD_0" : 2
                    },
                    "indices" : 3,
                    "material" : 0
                }
            ]
        },
        {
            "name" : "puzz_render.001",
            "primitives" : [
                {
                    "attributes" : {
                        "POSITION" : 4,
                        "NORMAL" : 5,
                        "TEXCOORD_0" : 6
                    },
                    "indices" : 7,
                    "material" : 0
                }
            ]
        },
        {
            "name" : "puzz_render.003",
            "primitives" : [
                {
                    "attributes" : {
                        "POSITION" : 8,
                        "NORMAL" : 9,
                        "TEXCOORD_0" : 10
                    },
                    "indices" : 11,
                    "material" : 1
                }
            ]
        },
        {
            "name" : "puzz_render.004",
            "primitives" : [
                {
                    "attributes" : {
                        "POSITION" : 12,
                        "NORMAL" : 13,
                        "TEXCOORD_0" : 14
                    },
                    "indices" : 15,
                    "material" : 1
                }
            ]
        }
    ],
    "accessors" : [
        {
            "bufferView" : 0,
            "componentType" : 5126,
            "count" : 142,
            "max" : [
                5.485355854034424,
                5.508446216583252,
                -0.10012300312519073
            ],
            "min" : [
                -5.3922271728515625,
                -5.590174198150635,
                -3.6966769695281982
            ],
            "type" : "VEC3"
        },
        {
            "bufferView" : 1,
            "componentType" : 5126,
            "count" : 142,
            "type" : "VEC3"
        },
        {
            "bufferView" : 2,
            "componentType" : 5126,
            "count" : 142,
            "type" : "VEC2"
        },
        {
            "bufferView" : 3,
            "componentType" : 5123,
            "count" : 234,
            "type" : "SCALAR"
        },
        {
            "bufferView" : 4,
            "componentType" : 5126,
            "count" : 142,
            "max" : [
                5.560856819152832,
                5.540081024169922,
                -8.318458557128906
            ],
            "min" : [
                -5.381906032562256,
                -5.614356994628906,
                -11.972108840942383
            ],
            "type" : "VEC3"
        },
        {
            "bufferView" : 5,
            "componentType" : 5126,
            "count" : 142,
            "type" : "VEC3"
        },
        {
            "bufferView" : 6,
            "componentType" : 5126,
            "count" : 142,
            "type" : "VEC2"
        },
        {
            "bufferView" : 7,
            "componentType" : 5123,
            "count" : 234,
            "type" : "SCALAR"
        },
        {
            "bufferView" : 8,
            "componentType" : 5126,
            "count" : 122,
            "max" : [
                5.253596782684326,
                0.023437000811100006,
                -9.133797645568848
            ],
            "min" : [
                3.4268500804901123,
                -1.3145689964294434,
                -12.341706275939941
            ],
            "type" : "VEC3"
        },
        {
            "bufferView" : 9,
            "componentType" : 5126,
            "count" : 122,
            "type" : "VEC3"
        },
        {
            "bufferView" : 10,
            "componentType" : 5126,
            "count" : 122,
            "type" : "VEC2"
        },
        {
            "bufferView" : 11,
            "componentType" : 5123,
            "count" : 216,
            "type" : "SCALAR"
        },
        {
            "bufferView" : 12,
            "componentType" : 5126,
            "count" : 255,
            "max" : [
                -4.907831192016602,
                2.2799830436706543,
                -3.26418399810791
            ],
            "min" : [
                -6.522784233093262,
                -1.1400660276412964,
                -8.907515525817871
            ],
            "type" : "VEC3"
        },
        {
            "bufferView" : 13,
            "componentType" : 5126,
            "count" : 255,
            "type" : "VEC3"
        },
        {
            "bufferView" : 14,
            "componentType" : 5126,
            "count" : 255,
            "type" : "VEC2"
        },
        {
            "bufferView" : 15,
            "componentType" : 5123,
            "count" : 468,
            "type" : "SCALAR"
        }
    ],
    "bufferViews" : [
        {
            "buffer" : 0,
            "byteLength" : 1704,
            "byteOffset" : 0
        },
        {
            "buffer" : 0,
            "byteLength" : 1704,
            "byteOffset" : 1704
        },
        {
            "buffer" : 0,
            "byteLength" : 1136,
            "byteOffset" : 3408
        },
        {
            "buffer" : 0,
            "byteLength" : 468,
            "byteOffset" : 4544
        },
        {
            "buffer" : 0,
            "byteLength" : 1704,
            "byteOffset" : 5012
        },
        {
            "buffer" : 0,
            "byteLength" : 1704,
            "byteOffset" : 6716
        },
        {
            "buffer" : 0,
            "byteLength" : 1136,
            "byteOffset" : 8420
        },
        {
            "buffer" : 0,
            "byteLength" : 468,
            "byteOffset" : 9556
        },
        {
            "buffer" : 0,
            "byteLength" : 1464,
            "byteOffset" : 10024
        },
        {
            "buffer" : 0,
            "byteLength" : 1464,
            "byteOffset" : 11488
        },
        {
            "buffer" : 0,
            "byteLength" : 976,
            "byteOffset" : 12952
        },
        {
            "buffer" : 0,
            "byteLength" : 432,
            "byteOffset" : 13928
        },
        {
            "buffer" : 0,
            "byteLength" : 3060,
            "byteOffset" : 14360
        },
        {
            "buffer" : 0,
            "byteLength" : 3060,
            "byteOffset" : 17420
        },
        {
            "buffer" : 0,
            "byteLength" : 2040,
            "byteOffset" : 20480
        },
        {
            "buffer" : 0,
            "byteLength" : 936,
            "byteOffset" : 22520
        }
    ],
    "buffers" : [
        {
            "byteLength" : 23456,
            "uri" : "data:application/octet-stream;base64,"
        }
    ]
}
