{
    "asset" : {
        "generator" : "Khronos glTF Blender I/O v1.6.16",
        "version" : "2.0"
    },
    "scene" : 0,
    "scenes" : [
        {
            "name" : "Scene",
            "nodes" : [
                0
            ]
        }
    ],
    "nodes" : [
        {
            "mesh" : 0,
            "name" : "puzz_bottom_v2",
            "rotation" : [
                -0.412727952003479,
                -0.29565948247909546,
                -0.6301331520080566,
                0.5875145196914673
            ],
            "translation" : [
                7.952765464782715,
                112.94560241699219,
                -35.110931396484375
            ]
        }
    ],
    "materials" : [
        {
            "doubleSided" : true,
            "name" : "Standard737373",
            "pbrMetallicRoughness" : {
                "baseColorFactor" : [
                    0.45098039507865906,
                    0.45098039507865906,
                    0.45098039507865906,
                    1
                ],
                "metallicFactor" : 0
            }
        },
        {
            "doubleSided" : true,
            "name" : "StandardAEBDC3",
            "pbrMetallicRoughness" : {
                "baseColorFactor" : [
                    0.6823530197143555,
                    0.7411764860153198,
                    0.7647058963775635,
                    1
                ],
                "metallicFactor" : 0
            }
        },
        {
            "doubleSided" : true,
            "name" : "StandardE1E871",
            "pbrMetallicRoughness" : {
                "baseColorFactor" : [
                    0.882352888584137,
                    0.9098039269447327,
                    0.4431372880935669,
                    1
                ],
                "metallicFactor" : 0
            }
        },
        {
            "doubleSided" : true,
            "name" : "Standard9D9D9D",
            "pbrMetallicRoughness" : {
                "baseColorFactor" : [
                    0.615686297416687,
                    0.615686297416687,
                    0.615686297416687,
                    1
                ],
                "metallicFactor" : 0
            }
        },
        {
            "doubleSided" : true,
            "name" : "Standard64B0EF",
            "pbrMetallicRoughness" : {
                "baseColorFactor" : [
                    0.3921568989753723,
                    0.6901960968971252,
                    0.9372549057006836,
                    1
                ],
                "metallicFactor" : 0
            }
        },
        {
            "doubleSided" : true,
            "name" : "StandardFF483B",
            "pbrMetallicRoughness" : {
                "baseColorFactor" : [
                    1,
                    0.282353013753891,
                    0.23137259483337402,
                    1
                ],
                "metallicFactor" : 0
            }
        },
        {
            "doubleSided" : true,
            "name" : "Standard575757",
            "pbrMetallicRoughness" : {
                "baseColorFactor" : [
                    0.34117650985717773,
                    0.34117650985717773,
                    0.34117650985717773,
                    1
                ],
                "metallicFactor" : 0
            }
        },
        {
            "doubleSided" : true,
            "name" : "StandardB8B8B8",
            "pbrMetallicRoughness" : {
                "baseColorFactor" : [
                    0.7215685844421387,
                    0.7215685844421387,
                    0.7215685844421387,
                    1
                ],
                "metallicFactor" : 0
            }
        },
        {
            "doubleSided" : true,
            "name" : "StandardCCCBC5",
            "pbrMetallicRoughness" : {
                "baseColorFactor" : [
                    0.800000011920929,
                    0.7960783839225769,
                    0.7725489735603333,
                    1
                ],
                "metallicFactor" : 0
            }
        }
    ],
    "meshes" : [
        {
            "name" : "puzz_bottom_v2",
            "primitives" : [
                {
                    "attributes" : {
                        "POSITION" : 0,
                        "NORMAL" : 1,
                        "TEXCOORD_0" : 2
                    },
                    "indices" : 3,
                    "material" : 0
                },
                {
                    "attributes" : {
                        "POSITION" : 4,
                        "NORMAL" : 5,
                        "TEXCOORD_0" : 6
                    },
                    "indices" : 7,
                    "material" : 1
                },
                {
                    "attributes" : {
                        "POSITION" : 8,
                        "NORMAL" : 9,
                        "TEXCOORD_0" : 10
                    },
                    "indices" : 11,
                    "material" : 2
                },
                {
                    "attributes" : {
                        "POSITION" : 12,
                        "NORMAL" : 13,
                        "TEXCOORD_0" : 14
                    },
                    "indices" : 15,
                    "material" : 3
                },
                {
                    "attributes" : {
                        "POSITION" : 16,
                        "NORMAL" : 17,
                        "TEXCOORD_0" : 18
                    },
                    "indices" : 19,
                    "material" : 4
                },
                {
                    "attributes" : {
                        "POSITION" : 20,
                        "NORMAL" : 21,
                        "TEXCOORD_0" : 22
                    },
                    "indices" : 23,
                    "material" : 5
                },
                {
                    "attributes" : {
                        "POSITION" : 24,
                        "NORMAL" : 25,
                        "TEXCOORD_0" : 26
                    },
                    "indices" : 27,
                    "material" : 6
                },
                {
                    "attributes" : {
                        "POSITION" : 28,
                        "NORMAL" : 29,
                        "TEXCOORD_0" : 30
                    },
                    "indices" : 31,
                    "material" : 7
                },
                {
                    "attributes" : {
                        "POSITION" : 32,
                        "NORMAL" : 33,
                        "TEXCOORD_0" : 34
                    },
                    "indices" : 35,
                    "material" : 8
                }
            ]
        }
    ],
    "accessors" : [
        {
            "bufferView" : 0,
            "componentType" : 5126,
            "count" : 1831,
            "max" : [
                131.27420043945312,
                62.13941955566406,
                -3.051758176297881e-05
            ],
            "min" : [
                4.624451160430908,
                -61.760250091552734,
                -104.66329956054688
            ],
            "type" : "VEC3"
        },
        {
            "bufferView" : 1,
            "componentType" : 5126,
            "count" : 1831,
            "type" : "VEC3"
        },
        {
            "bufferView" : 2,
            "componentType" : 5126,
            "count" : 1831,
            "type" : "VEC2"
        },
        {
            "bufferView" : 3,
            "componentType" : 5123,
            "count" : 10368,
            "type" : "SCALAR"
        },
        {
            "bufferView" : 4,
            "componentType" : 5126,
            "count" : 1458,
            "max" : [
                135.83810424804688,
                16.82073974609375,
                -0.853599488735199
            ],
            "min" : [
                83.81786346435547,
                -28.34762954711914,
                -54.751068115234375
            ],
            "type" : "VEC3"
        },
        {
            "bufferView" : 5,
            "componentType" : 5126,
            "count" : 1458,
            "type" : "VEC3"
        },
        {
            "bufferView" : 6,
            "componentType" : 5126,
            "count" : 1458,
            "type" : "VEC2"
        },
        {
            "bufferView" : 7,
            "componentType" : 5123,
            "count" : 8448,
            "type" : "SCALAR"
        },
        {
            "bufferView" : 8,
            "componentType" : 5126,
            "count" : 1833,
            "max" : [
                138.2548065185547,
                -4.474405765533447,
                -6.082087993621826
            ],
            "min" : [
                109.86669921875,
                -24.699060440063477,
                -39.72201156616211
            ],
            "type" : "VEC3"
        },
        {
            "bufferView" : 9,
            "componentType" : 5126,
            "count" : 1833,
            "type" : "VEC3"
        },
        {
            "bufferView" : 10,
            "componentType" : 5126,
            "count" : 1833,
            "type" : "VEC2"
        },
        {
            "bufferView" : 11,
            "componentType" : 5123,
            "count" : 10368,
            "type" : "SCALAR"
        },
        {
            "bufferView" : 12,
            "componentType" : 5126,
            "count" : 2092,
            "max" : [
                128.7216033935547,
                9.04535961151123,
                -4.685579776763916
            ],
            "min" : [
                117.39730072021484,
                -7.182058811187744,
                -20.411510467529297
            ],
            "type" : "VEC3"
        },
        {
            "bufferView" : 13,
            "componentType" : 5126,
            "count" : 2092,
            "type" : "VEC3"
        },
        {
            "bufferView" : 14,
            "componentType" : 5126,
            "count" : 2092,
            "type" : "VEC2"
        },
        {
            "bufferView" : 15,
            "componentType" : 5123,
            "count" : 11520,
            "type" : "SCALAR"
        },
        {
            "bufferView" : 16,
            "componentType" : 5126,
            "count" : 998,
            "max" : [
                131.87100219726562,
                10.81408977508545,
                -18.21523094177246
            ],
            "min" : [
                125.91480255126953,
                4.061561107635498,
                -24.94938087463379
            ],
            "type" : "VEC3"
        },
        {
            "bufferView" : 17,
            "componentType" : 5126,
            "count" : 998,
            "type" : "VEC3"
        },
        {
            "bufferView" : 18,
            "componentType" : 5126,
            "count" : 998,
            "type" : "VEC2"
        },
        {
            "bufferView" : 19,
            "componentType" : 5123,
            "count" : 5760,
            "type" : "SCALAR"
        },
        {
            "bufferView" : 20,
            "componentType" : 5126,
            "count" : 1001,
            "max" : [
                135.90660095214844,
                11.69102954864502,
                -25.132999420166016
            ],
            "min" : [
                130.0906982421875,
                4.952167987823486,
                -31.898229598999023
            ],
            "type" : "VEC3"
        },
        {
            "bufferView" : 21,
            "componentType" : 5126,
            "count" : 1001,
            "type" : "VEC3"
        },
        {
            "bufferView" : 22,
            "componentType" : 5126,
            "count" : 1001,
            "type" : "VEC2"
        },
        {
            "bufferView" : 23,
            "componentType" : 5123,
            "count" : 5760,
            "type" : "SCALAR"
        },
        {
            "bufferView" : 24,
            "componentType" : 5126,
            "count" : 24,
            "max" : [
                135.7371063232422,
                4.026264190673828,
                -19.300390243530273
            ],
            "min" : [
                124.93479919433594,
                -5.233557224273682,
                -33.948020935058594
            ],
            "type" : "VEC3"
        },
        {
            "bufferView" : 25,
            "componentType" : 5126,
            "count" : 24,
            "type" : "VEC3"
        },
        {
            "bufferView" : 26,
            "componentType" : 5126,
            "count" : 24,
            "type" : "VEC2"
        },
        {
            "bufferView" : 27,
            "componentType" : 5123,
            "count" : 36,
            "type" : "SCALAR"
        },
        {
            "bufferView" : 28,
            "componentType" : 5126,
            "count" : 60,
            "max" : [
                135.47129821777344,
                1.7528929710388184,
                -23.629199981689453
            ],
            "min" : [
                125.44889831542969,
                -2.4550209045410156,
                -32.579261779785156
            ],
            "type" : "VEC3"
        },
        {
            "bufferView" : 29,
            "componentType" : 5126,
            "count" : 60,
            "type" : "VEC3"
        },
        {
            "bufferView" : 30,
            "componentType" : 5126,
            "count" : 60,
            "type" : "VEC2"
        },
        {
            "bufferView" : 31,
            "componentType" : 5123,
            "count" : 72,
            "type" : "SCALAR"
        },
        {
            "bufferView" : 32,
            "componentType" : 5126,
            "count" : 1836,
            "max" : [
                130.63180541992188,
                64.56024169921875,
                -7.501129150390625
            ],
            "min" : [
                8.67938232421875,
                -64.56021881103516,
                -96.3450927734375
            ],
            "type" : "VEC3"
        },
        {
            "bufferView" : 33,
            "componentType" : 5126,
            "count" : 1836,
            "type" : "VEC3"
        },
        {
            "bufferView" : 34,
            "componentType" : 5126,
            "count" : 1836,
            "type" : "VEC2"
        },
        {
            "bufferView" : 35,
            "componentType" : 5123,
            "count" : 10368,
            "type" : "SCALAR"
        }
    ],
    "bufferViews" : [
        {
            "buffer" : 0,
            "byteLength" : 21972,
            "byteOffset" : 0
        },
        {
            "buffer" : 0,
            "byteLength" : 21972,
            "byteOffset" : 21972
        },
        {
            "buffer" : 0,
            "byteLength" : 14648,
            "byteOffset" : 43944
        },
        {
            "buffer" : 0,
            "byteLength" : 20736,
            "byteOffset" : 58592
        },
        {
            "buffer" : 0,
            "byteLength" : 17496,
            "byteOffset" : 79328
        },
        {
            "buffer" : 0,
            "byteLength" : 17496,
            "byteOffset" : 96824
        },
        {
            "buffer" : 0,
            "byteLength" : 11664,
            "byteOffset" : 114320
        },
        {
            "buffer" : 0,
            "byteLength" : 16896,
            "byteOffset" : 125984
        },
        {
            "buffer" : 0,
            "byteLength" : 21996,
            "byteOffset" : 142880
        },
        {
            "buffer" : 0,
            "byteLength" : 21996,
            "byteOffset" : 164876
        },
        {
            "buffer" : 0,
            "byteLength" : 14664,
            "byteOffset" : 186872
        },
        {
            "buffer" : 0,
            "byteLength" : 20736,
            "byteOffset" : 201536
        },
        {
            "buffer" : 0,
            "byteLength" : 25104,
            "byteOffset" : 222272
        },
        {
            "buffer" : 0,
            "byteLength" : 25104,
            "byteOffset" : 247376
        },
        {
            "buffer" : 0,
            "byteLength" : 16736,
            "byteOffset" : 272480
        },
        {
            "buffer" : 0,
            "byteLength" : 23040,
            "byteOffset" : 289216
        },
        {
            "buffer" : 0,
            "byteLength" : 11976,
            "byteOffset" : 312256
        },
        {
            "buffer" : 0,
            "byteLength" : 11976,
            "byteOffset" : 324232
        },
        {
            "buffer" : 0,
            "byteLength" : 7984,
            "byteOffset" : 336208
        },
        {
            "buffer" : 0,
            "byteLength" : 11520,
            "byteOffset" : 344192
        },
        {
            "buffer" : 0,
            "byteLength" : 12012,
            "byteOffset" : 355712
        },
        {
            "buffer" : 0,
            "byteLength" : 12012,
            "byteOffset" : 367724
        },
        {
            "buffer" : 0,
            "byteLength" : 8008,
            "byteOffset" : 379736
        },
        {
            "buffer" : 0,
            "byteLength" : 11520,
            "byteOffset" : 387744
        },
        {
            "buffer" : 0,
            "byteLength" : 288,
            "byteOffset" : 399264
        },
        {
            "buffer" : 0,
            "byteLength" : 288,
            "byteOffset" : 399552
        },
        {
            "buffer" : 0,
            "byteLength" : 192,
            "byteOffset" : 399840
        },
        {
            "buffer" : 0,
            "byteLength" : 72,
            "byteOffset" : 400032
        },
        {
            "buffer" : 0,
            "byteLength" : 720,
            "byteOffset" : 400104
        },
        {
            "buffer" : 0,
            "byteLength" : 720,
            "byteOffset" : 400824
        },
        {
            "buffer" : 0,
            "byteLength" : 480,
            "byteOffset" : 401544
        },
        {
            "buffer" : 0,
            "byteLength" : 144,
            "byteOffset" : 402024
        },
        {
            "buffer" : 0,
            "byteLength" : 22032,
            "byteOffset" : 402168
        },
        {
            "buffer" : 0,
            "byteLength" : 22032,
            "byteOffset" : 424200
        },
        {
            "buffer" : 0,
            "byteLength" : 14688,
            "byteOffset" : 446232
        },
        {
            "buffer" : 0,
            "byteLength" : 20736,
            "byteOffset" : 460920
        }
    ],
    "buffers" : [
        {
            "byteLength" : 481656,
            "uri" : "data:application/octet-stream;base64,"
        }
    ]
}
